<svg width="46" height="53" viewBox="0 0 46 53" fill="none" xmlns="http://www.w3.org/2000/svg">
<path d="M4.99531 50.108C4.15531 50.108 3.41931 49.928 2.78731 49.568C2.16331 49.208 1.68331 48.7 1.34731 48.044C1.01131 47.38 0.843313 46.604 0.843313 45.716C0.843313 44.836 1.01131 44.068 1.34731 43.412C1.68331 42.748 2.16331 42.24 2.78731 41.888C3.41931 41.528 4.15531 41.348 4.99531 41.348C5.57131 41.348 6.11131 41.44 6.61531 41.624C7.12731 41.8 7.55131 42.048 7.88731 42.368L7.38331 43.496C6.99931 43.184 6.61531 42.96 6.23131 42.824C5.85531 42.68 5.45131 42.608 5.01931 42.608C4.19531 42.608 3.55531 42.876 3.09931 43.412C2.65131 43.948 2.42731 44.716 2.42731 45.716C2.42731 46.724 2.65131 47.5 3.09931 48.044C3.54731 48.58 4.18731 48.848 5.01931 48.848C5.45131 48.848 5.85531 48.78 6.23131 48.644C6.61531 48.5 6.99931 48.272 7.38331 47.96L7.88731 49.088C7.55131 49.408 7.12731 49.66 6.61531 49.844C6.11131 50.02 5.57131 50.108 4.99531 50.108ZM12.6942 43.784C14.1422 43.784 14.8662 44.616 14.8662 46.28V50H13.3662V46.352C13.3662 45.872 13.2742 45.524 13.0902 45.308C12.9062 45.084 12.6222 44.972 12.2382 44.972C11.7822 44.972 11.4142 45.12 11.1342 45.416C10.8542 45.704 10.7142 46.088 10.7142 46.568V50H9.22616V41.168H10.7142V44.816C10.9222 44.488 11.1982 44.236 11.5422 44.06C11.8862 43.876 12.2702 43.784 12.6942 43.784ZM22.2526 43.94V50H20.7766V49.028C20.5926 49.364 20.3286 49.628 19.9846 49.82C19.6406 50.004 19.2486 50.096 18.8086 50.096C18.2806 50.096 17.8126 49.968 17.4046 49.712C16.9966 49.456 16.6806 49.092 16.4566 48.62C16.2326 48.148 16.1206 47.6 16.1206 46.976C16.1206 46.352 16.2326 45.8 16.4566 45.32C16.6886 44.832 17.0086 44.456 17.4166 44.192C17.8246 43.92 18.2886 43.784 18.8086 43.784C19.2486 43.784 19.6406 43.88 19.9846 44.072C20.3286 44.256 20.5926 44.516 20.7766 44.852V43.94H22.2526ZM19.2166 48.92C19.7126 48.92 20.0966 48.748 20.3686 48.404C20.6406 48.06 20.7766 47.576 20.7766 46.952C20.7766 46.312 20.6406 45.82 20.3686 45.476C20.0966 45.132 19.7086 44.96 19.2046 44.96C18.7086 44.96 18.3206 45.14 18.0406 45.5C17.7686 45.852 17.6326 46.344 17.6326 46.976C17.6326 47.6 17.7686 48.08 18.0406 48.416C18.3206 48.752 18.7126 48.92 19.2166 48.92ZM25.7943 45.068V47.78C25.7943 48.492 26.1263 48.848 26.7903 48.848C26.9743 48.848 27.1743 48.816 27.3903 48.752V49.94C27.1263 50.036 26.8063 50.084 26.4303 50.084C25.7423 50.084 25.2143 49.892 24.8463 49.508C24.4783 49.124 24.2943 48.572 24.2943 47.852V45.068H23.1303V43.94H24.2943V42.464L25.7943 41.96V43.94H27.4023V45.068H25.7943ZM35.3622 50.108C34.1862 50.108 33.2942 49.808 32.6862 49.208C32.0862 48.6 31.7862 47.712 31.7862 46.544V41.456H33.3102V46.628C33.3102 47.364 33.4822 47.924 33.8262 48.308C34.1702 48.684 34.6822 48.872 35.3622 48.872C36.0262 48.872 36.5302 48.68 36.8742 48.296C37.2262 47.912 37.4022 47.356 37.4022 46.628V41.456H38.9262V46.544C38.9262 47.704 38.6222 48.588 38.0142 49.196C37.4062 49.804 36.5222 50.108 35.3622 50.108ZM42.829 50.096C41.733 50.096 40.861 49.84 40.213 49.328L40.633 48.272C41.281 48.752 42.021 48.992 42.853 48.992C43.213 48.992 43.489 48.932 43.681 48.812C43.881 48.692 43.981 48.524 43.981 48.308C43.981 48.124 43.913 47.98 43.777 47.876C43.641 47.764 43.409 47.668 43.081 47.588L42.073 47.36C40.969 47.12 40.417 46.556 40.417 45.668C40.417 45.3 40.521 44.976 40.729 44.696C40.937 44.408 41.229 44.184 41.605 44.024C41.981 43.864 42.417 43.784 42.913 43.784C43.345 43.784 43.761 43.852 44.161 43.988C44.561 44.116 44.913 44.304 45.217 44.552L44.773 45.572C44.165 45.124 43.541 44.9 42.901 44.9C42.557 44.9 42.289 44.964 42.097 45.092C41.905 45.22 41.809 45.396 41.809 45.62C41.809 45.796 41.865 45.936 41.977 46.04C42.097 46.144 42.297 46.232 42.577 46.304L43.609 46.532C44.209 46.668 44.645 46.88 44.917 47.168C45.197 47.448 45.337 47.816 45.337 48.272C45.337 48.832 45.113 49.276 44.665 49.604C44.217 49.932 43.605 50.096 42.829 50.096Z" fill="#2E4865"/>
<path d="M12.0164 24.1231H13.4468H14.8772C14.8772 24.1231 14.162 29.3613 14.8772 29.9606C15.5924 30.5599 22.1738 24.1231 22.1738 24.1231H23.4597H29.1814C30.7592 24.1231 32.0422 22.84 32.0422 21.2622V9.81885C32.0422 8.24109 30.7592 6.95801 29.1814 6.95801H12.0164C10.4386 6.95801 9.15552 8.24109 9.15552 9.81885V21.2622C9.15552 22.84 10.4386 24.1231 12.0164 24.1231Z" fill="#8295B5"/>
<path d="M33.4725 2.66675H32.0421H29.1784H17.7379H16.3075C14.7297 2.66675 13.4467 3.94983 13.4467 5.52759H17.7379H28.5891H30.6117C32.1895 5.52759 33.4725 6.81068 33.4725 8.38843V10.411V15.5405V19.8318C35.0503 19.8318 36.3334 18.5487 36.3334 16.971V15.5405V9.81885V6.95801V5.52759C36.3334 3.94983 35.0503 2.66675 33.4725 2.66675Z" fill="#2E4865"/>
<rect x="13" y="10" width="15" height="2" rx="1" fill="white"/>
<rect x="13" y="14" width="15" height="2" rx="1" fill="white"/>
<rect x="13" y="18" width="15" height="2" rx="1" fill="white"/>
</svg>
