<svg width="70" height="54" viewBox="0 0 70 54" fill="none" xmlns="http://www.w3.org/2000/svg">
<path d="M3.93514 51.108C3.27914 51.108 2.66314 51.02 2.08714 50.844C1.51914 50.668 1.03514 50.416 0.635141 50.088L1.16314 48.96C1.57914 49.272 2.01114 49.504 2.45914 49.656C2.91514 49.8 3.41114 49.872 3.94714 49.872C4.53914 49.872 4.99514 49.768 5.31514 49.56C5.64314 49.352 5.80714 49.06 5.80714 48.684C5.80714 48.364 5.65514 48.12 5.35114 47.952C5.05514 47.776 4.56314 47.612 3.87514 47.46C2.80314 47.228 2.02314 46.928 1.53514 46.56C1.04714 46.192 0.803141 45.656 0.803141 44.952C0.803141 44.448 0.939141 44 1.21114 43.608C1.48314 43.216 1.86714 42.908 2.36314 42.684C2.86714 42.46 3.44714 42.348 4.10314 42.348C4.70314 42.348 5.27114 42.44 5.80714 42.624C6.35114 42.8 6.79514 43.048 7.13914 43.368L6.62314 44.496C5.86314 43.888 5.02314 43.584 4.10314 43.584C3.55114 43.584 3.11514 43.7 2.79514 43.932C2.47514 44.156 2.31514 44.464 2.31514 44.856C2.31514 45.192 2.45514 45.448 2.73514 45.624C3.02314 45.8 3.51114 45.964 4.19914 46.116C4.91114 46.284 5.49114 46.468 5.93914 46.668C6.38714 46.86 6.73114 47.112 6.97114 47.424C7.21114 47.728 7.33114 48.112 7.33114 48.576C7.33114 49.088 7.19514 49.536 6.92314 49.92C6.65114 50.296 6.25914 50.588 5.74714 50.796C5.23514 51.004 4.63114 51.108 3.93514 51.108ZM13.9618 48.048H9.7858C9.8178 48.696 9.9778 49.176 10.2658 49.488C10.5618 49.792 10.9978 49.944 11.5738 49.944C12.2378 49.944 12.8538 49.728 13.4218 49.296L13.8538 50.328C13.5658 50.56 13.2098 50.748 12.7858 50.892C12.3698 51.028 11.9458 51.096 11.5138 51.096C10.5218 51.096 9.7418 50.816 9.1738 50.256C8.6058 49.696 8.3218 48.928 8.3218 47.952C8.3218 47.336 8.4458 46.788 8.6938 46.308C8.9418 45.828 9.2898 45.456 9.7378 45.192C10.1858 44.92 10.6938 44.784 11.2618 44.784C12.0938 44.784 12.7498 45.056 13.2298 45.6C13.7178 46.136 13.9618 46.876 13.9618 47.82V48.048ZM11.2978 45.864C10.8978 45.864 10.5698 45.984 10.3138 46.224C10.0658 46.456 9.9058 46.796 9.8338 47.244H12.6538C12.6058 46.788 12.4658 46.444 12.2338 46.212C12.0098 45.98 11.6978 45.864 11.2978 45.864ZM18.7 44.784C20.148 44.784 20.872 45.616 20.872 47.28V51H19.372V47.352C19.372 46.872 19.28 46.524 19.096 46.308C18.912 46.084 18.628 45.972 18.244 45.972C17.788 45.972 17.42 46.12 17.14 46.416C16.86 46.704 16.72 47.088 16.72 47.568V51H15.232V46.656C15.232 46.016 15.2 45.444 15.136 44.94H16.54L16.648 45.936C16.856 45.568 17.136 45.284 17.488 45.084C17.848 44.884 18.252 44.784 18.7 44.784ZM28.2585 42.168V51H26.7825V50.028C26.5985 50.364 26.3345 50.628 25.9905 50.82C25.6465 51.004 25.2545 51.096 24.8145 51.096C24.2945 51.096 23.8305 50.964 23.4225 50.7C23.0145 50.436 22.6945 50.064 22.4625 49.584C22.2385 49.096 22.1265 48.54 22.1265 47.916C22.1265 47.292 22.2385 46.744 22.4625 46.272C22.6865 45.8 23.0025 45.436 23.4105 45.18C23.8185 44.916 24.2865 44.784 24.8145 44.784C25.2465 44.784 25.6305 44.876 25.9665 45.06C26.3105 45.236 26.5745 45.488 26.7585 45.816V42.168H28.2585ZM25.2105 49.92C25.7065 49.92 26.0905 49.748 26.3625 49.404C26.6425 49.06 26.7825 48.572 26.7825 47.94C26.7825 47.308 26.6465 46.82 26.3745 46.476C26.1025 46.132 25.7185 45.96 25.2225 45.96C24.7185 45.96 24.3265 46.132 24.0465 46.476C23.7745 46.812 23.6385 47.292 23.6385 47.916C23.6385 48.548 23.7745 49.04 24.0465 49.392C24.3265 49.744 24.7145 49.92 25.2105 49.92ZM41.6211 42.456V51H40.2531V45.696L37.9851 51H36.9651L34.6851 45.756V51H33.3171V42.456H34.5411L37.4811 49.14L40.3971 42.456H41.6211ZM46.1285 51.096C45.5125 51.096 44.9685 50.968 44.4965 50.712C44.0325 50.456 43.6725 50.092 43.4165 49.62C43.1685 49.14 43.0445 48.58 43.0445 47.94C43.0445 47.3 43.1685 46.744 43.4165 46.272C43.6725 45.792 44.0325 45.424 44.4965 45.168C44.9685 44.912 45.5125 44.784 46.1285 44.784C46.7365 44.784 47.2725 44.912 47.7365 45.168C48.2005 45.424 48.5565 45.792 48.8045 46.272C49.0605 46.744 49.1885 47.3 49.1885 47.94C49.1885 48.58 49.0605 49.14 48.8045 49.62C48.5565 50.092 48.2005 50.456 47.7365 50.712C47.2725 50.968 46.7365 51.096 46.1285 51.096ZM46.1165 49.92C46.6285 49.92 47.0165 49.756 47.2805 49.428C47.5525 49.092 47.6885 48.596 47.6885 47.94C47.6885 47.292 47.5525 46.8 47.2805 46.464C47.0085 46.12 46.6245 45.948 46.1285 45.948C45.6245 45.948 45.2365 46.12 44.9645 46.464C44.6925 46.8 44.5565 47.292 44.5565 47.94C44.5565 48.596 44.6885 49.092 44.9525 49.428C45.2245 49.756 45.6125 49.92 46.1165 49.92ZM53.95 44.784C55.398 44.784 56.122 45.616 56.122 47.28V51H54.622V47.352C54.622 46.872 54.53 46.524 54.346 46.308C54.162 46.084 53.878 45.972 53.494 45.972C53.038 45.972 52.67 46.12 52.39 46.416C52.11 46.704 51.97 47.088 51.97 47.568V51H50.482V46.656C50.482 46.016 50.45 45.444 50.386 44.94H51.79L51.898 45.936C52.106 45.568 52.386 45.284 52.738 45.084C53.098 44.884 53.502 44.784 53.95 44.784ZM63.0165 48.048H58.8405C58.8725 48.696 59.0325 49.176 59.3205 49.488C59.6165 49.792 60.0525 49.944 60.6285 49.944C61.2925 49.944 61.9085 49.728 62.4765 49.296L62.9085 50.328C62.6205 50.56 62.2645 50.748 61.8405 50.892C61.4245 51.028 61.0005 51.096 60.5685 51.096C59.5765 51.096 58.7965 50.816 58.2285 50.256C57.6605 49.696 57.3765 48.928 57.3765 47.952C57.3765 47.336 57.5005 46.788 57.7485 46.308C57.9965 45.828 58.3445 45.456 58.7925 45.192C59.2405 44.92 59.7485 44.784 60.3165 44.784C61.1485 44.784 61.8045 45.056 62.2845 45.6C62.7725 46.136 63.0165 46.876 63.0165 47.82V48.048ZM60.3525 45.864C59.9525 45.864 59.6245 45.984 59.3685 46.224C59.1205 46.456 58.9605 46.796 58.8885 47.244H61.7085C61.6605 46.788 61.5205 46.444 61.2885 46.212C61.0645 45.98 60.7525 45.864 60.3525 45.864ZM69.9172 44.94L67.0972 51.408C66.7772 52.16 66.3692 52.708 65.8732 53.052C65.3772 53.396 64.7652 53.624 64.0372 53.736L63.7012 52.584C64.2692 52.456 64.6932 52.292 64.9732 52.092C65.2612 51.9 65.4932 51.612 65.6692 51.228L65.8612 50.784L63.3412 44.94H64.9132L66.6532 49.296L68.4292 44.94H69.9172Z" fill="#2E4865"/>
<path d="M50.21 2.50421L42.7042 27.1133C42.517 27.7236 41.7829 27.9642 41.2714 27.5853C40.7965 27.2329 28.7361 18.282 28.0827 17.797L19.3403 14.4157C18.984 14.2779 18.7496 13.9352 18.7502 13.5531C18.7509 13.1711 18.9871 12.829 19.3439 12.693L48.998 1.3728C49.3563 1.23548 49.7663 1.33429 50.0235 1.62935C50.2309 1.86745 50.3036 2.19783 50.21 2.50421Z" fill="#C9D4DB"/>
<path d="M50.2098 2.50343L42.7039 27.1126C42.5167 27.7229 41.7826 27.9633 41.2711 27.5845L29.5786 18.9067L50.0232 1.62857C50.2306 1.86667 50.3033 2.19704 50.2098 2.50343Z" fill="#C9D4DB"/>
<path d="M49.997 2.86892L33.2941 20.4891L29.4182 28.1814C29.2237 28.5655 28.7914 28.7629 28.3803 28.6636C27.9644 28.5652 27.6709 28.1936 27.6709 27.766V16.9811C27.6709 16.6821 27.8155 16.4022 28.0591 16.2287L48.7924 1.4822C49.1794 1.20657 49.7122 1.26994 50.0235 1.62862C50.3353 1.9873 50.3236 2.5244 49.997 2.86892Z" fill="#8295B5"/>
<path d="M49.997 2.86887L33.2941 20.489L29.4182 28.1813C29.2237 28.5655 28.7914 28.7628 28.3803 28.6636C27.9644 28.5652 27.6709 28.1936 27.6709 27.766L29.5787 18.9067L50.0235 1.62857C50.3353 1.98724 50.3236 2.52434 49.997 2.86887Z" fill="#2E4865"/>
</svg>
