<svg width="42" height="50" viewBox="0 0 42 50" fill="none" xmlns="http://www.w3.org/2000/svg">
<path d="M8.36616 47H6.73416L5.64216 44.156C5.54616 43.892 5.39816 43.708 5.19816 43.604C4.99816 43.5 4.73816 43.448 4.41816 43.448H2.87016V47H1.33416V38.456H4.99416C5.96216 38.456 6.69816 38.668 7.20216 39.092C7.70616 39.516 7.95816 40.124 7.95816 40.916C7.95816 41.484 7.80616 41.968 7.50216 42.368C7.20616 42.76 6.78216 43.04 6.23016 43.208C6.73416 43.312 7.09816 43.664 7.32216 44.264L8.36616 47ZM4.77816 42.248C5.36216 42.248 5.79416 42.14 6.07416 41.924C6.35416 41.708 6.49416 41.38 6.49416 40.94C6.49416 40.508 6.35416 40.188 6.07416 39.98C5.80216 39.764 5.37016 39.656 4.77816 39.656H2.84616V42.248H4.77816ZM14.9559 44.048H10.7799C10.8119 44.696 10.9719 45.176 11.2599 45.488C11.5559 45.792 11.9919 45.944 12.5679 45.944C13.2319 45.944 13.8479 45.728 14.4159 45.296L14.8479 46.328C14.5599 46.56 14.2039 46.748 13.7799 46.892C13.3639 47.028 12.9399 47.096 12.5079 47.096C11.5159 47.096 10.7359 46.816 10.1679 46.256C9.59994 45.696 9.31594 44.928 9.31594 43.952C9.31594 43.336 9.43994 42.788 9.68794 42.308C9.93594 41.828 10.2839 41.456 10.7319 41.192C11.1799 40.92 11.6879 40.784 12.2559 40.784C13.0879 40.784 13.7439 41.056 14.2239 41.6C14.7119 42.136 14.9559 42.876 14.9559 43.82V44.048ZM12.2919 41.864C11.8919 41.864 11.5639 41.984 11.3079 42.224C11.0599 42.456 10.8999 42.796 10.8279 43.244H13.6479C13.5999 42.788 13.4599 42.444 13.2279 42.212C13.0039 41.98 12.6919 41.864 12.2919 41.864ZM19.059 39.356C18.411 39.356 18.087 39.712 18.087 40.424V40.94H19.443V42.068H18.087V47H16.587V42.068H15.435V40.94H16.587V40.352C16.587 39.632 16.767 39.08 17.127 38.696C17.495 38.304 18.019 38.108 18.699 38.108C19.075 38.108 19.391 38.156 19.647 38.252V39.44C19.423 39.384 19.227 39.356 19.059 39.356ZM26.1172 40.94V47H24.6533V46.064C24.4613 46.4 24.2053 46.656 23.8853 46.832C23.5653 47.008 23.1973 47.096 22.7812 47.096C21.3013 47.096 20.5613 46.264 20.5613 44.6V40.94H22.0493V44.612C22.0493 45.052 22.1373 45.376 22.3133 45.584C22.4973 45.792 22.7773 45.896 23.1533 45.896C23.5933 45.896 23.9453 45.752 24.2093 45.464C24.4733 45.176 24.6053 44.792 24.6053 44.312V40.94H26.1172ZM31.2137 40.784C32.6617 40.784 33.3857 41.616 33.3857 43.28V47H31.8857V43.352C31.8857 42.872 31.7937 42.524 31.6097 42.308C31.4257 42.084 31.1417 41.972 30.7577 41.972C30.3017 41.972 29.9337 42.12 29.6537 42.416C29.3737 42.704 29.2337 43.088 29.2337 43.568V47H27.7457V42.656C27.7457 42.016 27.7137 41.444 27.6497 40.94H29.0537L29.1617 41.936C29.3697 41.568 29.6497 41.284 30.0017 41.084C30.3617 40.884 30.7657 40.784 31.2137 40.784ZM40.7722 38.168V47H39.2962V46.028C39.1122 46.364 38.8482 46.628 38.5042 46.82C38.1602 47.004 37.7682 47.096 37.3282 47.096C36.8082 47.096 36.3442 46.964 35.9362 46.7C35.5282 46.436 35.2082 46.064 34.9762 45.584C34.7522 45.096 34.6402 44.54 34.6402 43.916C34.6402 43.292 34.7522 42.744 34.9762 42.272C35.2002 41.8 35.5162 41.436 35.9242 41.18C36.3322 40.916 36.8002 40.784 37.3282 40.784C37.7602 40.784 38.1442 40.876 38.4802 41.06C38.8242 41.236 39.0882 41.488 39.2722 41.816V38.168H40.7722ZM37.7242 45.92C38.2202 45.92 38.6042 45.748 38.8762 45.404C39.1562 45.06 39.2962 44.572 39.2962 43.94C39.2962 43.308 39.1602 42.82 38.8882 42.476C38.6162 42.132 38.2322 41.96 37.7362 41.96C37.2322 41.96 36.8402 42.132 36.5602 42.476C36.2882 42.812 36.1522 43.292 36.1522 43.916C36.1522 44.548 36.2882 45.04 36.5602 45.392C36.8402 45.744 37.2282 45.92 37.7242 45.92Z" fill="#2E4865"/>
<path d="M27.052 1.69028L31.6249 6.0938L27.052 10.4973" stroke="#8295B5" stroke-width="2" stroke-linecap="round" stroke-linejoin="round"/>
<path d="M11.0469 12.6992V10.4974C11.0469 9.32951 11.5287 8.20946 12.3862 7.38363C13.2438 6.55781 14.407 6.09387 15.6198 6.09387H31.6249" stroke="#8295B5" stroke-width="2" stroke-linecap="round" stroke-linejoin="round"/>
<path d="M15.6198 24.1698L11.0469 19.7662L15.6198 15.3627" stroke="#8295B5" stroke-width="2" stroke-linecap="round" stroke-linejoin="round"/>
<path d="M31.6249 13.1609V15.3627C31.6249 16.5306 31.1431 17.6506 30.2855 18.4764C29.4279 19.3023 28.2648 19.7662 27.052 19.7662H11.0469" stroke="#8295B5" stroke-width="2" stroke-linecap="round" stroke-linejoin="round"/>
</svg>
